<svg viewBox="0 0 1400 1000" xmlns="http://www.w3.org/2000/svg">
  <!-- 背景グラデーション -->
  <defs>
    <linearGradient id="skyGradient" x1="0%" y1="0%" x2="0%" y2="100%">
      <stop offset="0%" style="stop-color:#87CEEB;stop-opacity:1" />
      <stop offset="100%" style="stop-color:#E0F6FF;stop-opacity:1" />
    </linearGradient>
    
    <!-- 道路グラデーション -->
    <linearGradient id="roadGradient" x1="0%" y1="0%" x2="0%" y2="100%">
      <stop offset="0%" style="stop-color:#708090;stop-opacity:1" />
      <stop offset="100%" style="stop-color:#2F4F4F;stop-opacity:1" />
    </linearGradient>
    
    <!-- マイクロ炉のグロー -->
    <radialGradient id="reactorGlow" cx="50%" cy="50%" r="50%">
      <stop offset="0%" style="stop-color:#00FFFF;stop-opacity:1" />
      <stop offset="50%" style="stop-color:#0080FF;stop-opacity:0.8" />
      <stop offset="100%" style="stop-color:#004080;stop-opacity:0.3" />
    </radialGradient>
  </defs>

  <!-- 背景（空） -->
  <rect width="1400" height="1000" fill="url(#skyGradient)"/>
  
  <!-- 雲 -->
  <ellipse cx="200" cy="80" rx="40" ry="20" fill="white" opacity="0.8"/>
  <ellipse cx="1200" cy="100" rx="50" ry="25" fill="white" opacity="0.8"/>
  <ellipse cx="800" cy="60" rx="35" ry="18" fill="white" opacity="0.8"/>

  <!-- タイトル -->
  <text x="700" y="40" text-anchor="middle" font-family="Arial, sans-serif" font-size="24" font-weight="bold" fill="#2C3E50">
    マイクロ炉コミュニティ　〜 4つのエリアで支え合う街 〜
  </text>

  <!-- 道路（十字型） -->
  <rect x="0" y="480" width="1400" height="40" fill="url(#roadGradient)"/>
  <rect x="680" y="0" width="40" height="1000" fill="url(#roadGradient)"/>
  
  <!-- 道路の中央線 -->
  <rect x="0" y="498" width="1400" height="4" fill="white" opacity="0.8"/>
  <rect x="698" y="0" width="4" height="1000" fill="white" opacity="0.8"/>

  <!-- 中央エリア（マイクロ炉・公共施設） -->
  <g id="central-area">
    <!-- 中央広場 -->
    <rect x="580" y="380" width="240" height="240" fill="#98FB98" opacity="0.6" rx="20"/>
    
    <!-- マイクロ炉（地下表示） -->
    <circle cx="700" cy="500" r="30" fill="url(#reactorGlow)" opacity="0.8"/>
    <text x="700" y="505" text-anchor="middle" font-family="Arial, sans-serif" font-size="10" font-weight="bold" fill="white">地下マイクロ炉</text>
    
    <!-- 市役所 -->
    <rect x="620" y="400" width="50" height="40" fill="#D2B48C"/>
    <rect x="625" y="405" width="10" height="15" fill="#4169E1"/>
    <rect x="640" y="405" width="10" height="15" fill="#4169E1"/>
    <rect x="655" y="405" width="10" height="15" fill="#4169E1"/>
    <polygon points="620,400 645,385 670,400" fill="#8B4513"/>
    <text x="645" y="455" text-anchor="middle" font-family="Arial, sans-serif" font-size="10" fill="#2C3E50">市役所</text>
    
    <!-- 学校 -->
    <rect x="730" y="400" width="60" height="40" fill="#FFB6C1"/>
    <rect x="740" y="410" width="12" height="12" fill="#87CEEB"/>
    <rect x="755" y="410" width="12" height="12" fill="#87CEEB"/>
    <rect x="770" y="410" width="12" height="12" fill="#87CEEB"/>
    <text x="760" y="455" text-anchor="middle" font-family="Arial, sans-serif" font-size="10" fill="#2C3E50">学校</text>
    
    <!-- 病院 -->
    <rect x="620" y="540" width="50" height="40" fill="#F0F8FF"/>
    <rect x="635" y="545" width="20" height="20" fill="#FF6347"/>
    <line x1="645" y1="540" x2="645" y2="570" stroke="white" stroke-width="3"/>
    <line x1="630" y1="555" x2="660" y2="555" stroke="white" stroke-width="3"/>
    <text x="645" y="595" text-anchor="middle" font-family="Arial, sans-serif" font-size="10" fill="#2C3E50">病院</text>
    
    <!-- 商業施設 -->
    <rect x="730" y="540" width="60" height="40" fill="#FFE4B5"/>
    <rect x="740" y="550" width="15" height="20" fill="#DEB887"/>
    <rect x="760" y="550" width="15" height="20" fill="#DEB887"/>
    <text x="760" y="595" text-anchor="middle" font-family="Arial, sans-serif" font-size="10" fill="#2C3E50">商業施設</text>
  </g>

  <!-- エリアA: 学び・成長エリア（北西） -->
  <g id="area-a">
    <!-- エリア背景 -->
    <rect x="50" y="150" width="580" height="280" fill="#FFE4E1" opacity="0.7" rx="15" stroke="#FF6B6B" stroke-width="3"/>
    
    <!-- エリア名 -->
    <rect x="60" y="160" width="200" height="40" fill="#FF6B6B" rx="10"/>
    <text x="160" y="180" text-anchor="middle" font-family="Arial, sans-serif" font-size="16" font-weight="bold" fill="white">
      エリアA：学び・成長
    </text>
    <text x="160" y="195" text-anchor="middle" font-family="Arial, sans-serif" font-size="11" fill="white">
      子育て・教育の街
    </text>
    
    <!-- 戸建て住宅群 -->
    <g id="houses-a">
      <!-- 1列目 -->
      <rect x="80" y="220" width="35" height="30" fill="#FFEFD5" stroke="#DEB887" stroke-width="1" rx="3"/>
      <polygon points="80,220 97,205 115,220" fill="#8B4513"/>
      <rect x="90" y="235" width="8" height="10" fill="#4169E1"/>
      <rect x="85" y="225" width="6" height="6" fill="#FFD700"/>
      <text x="97" y="265" text-anchor="middle" font-family="Arial, sans-serif" font-size="8" fill="#8B4513">太陽光</text>
      
      <rect x="140" y="220" width="35" height="30" fill="#FFEFD5" stroke="#DEB887" stroke-width="1" rx="3"/>
      <polygon points="140,220 157,205 175,220" fill="#8B4513"/>
      <rect x="150" y="235" width="8" height="10" fill="#4169E1"/>
      <rect x="145" y="225" width="6" height="6" fill="#FFD700"/>
      
      <rect x="200" y="220" width="35" height="30" fill="#FFEFD5" stroke="#DEB887" stroke-width="1" rx="3"/>
      <polygon points="200,220 217,205 235,220" fill="#8B4513"/>
      <rect x="210" y="235" width="8" height="10" fill="#4169E1"/>
      <rect x="205" y="225" width="6" height="6" fill="#FFD700"/>
      
      <!-- 2列目 -->
      <rect x="80" y="280" width="35" height="30" fill="#FFEFD5" stroke="#DEB887" stroke-width="1" rx="3"/>
      <polygon points="80,280 97,265 115,280" fill="#8B4513"/>
      <rect x="90" y="295" width="8" height="10" fill="#4169E1"/>
      <rect x="85" y="285" width="6" height="6" fill="#FFD700"/>
      
      <rect x="140" y="280" width="35" height="30" fill="#FFEFD5" stroke="#DEB887" stroke-width="1" rx="3"/>
      <polygon points="140,280 157,265 175,280" fill="#8B4513"/>
      <rect x="150" y="295" width="8" height="10" fill="#4169E1"/>
      <rect x="145" y="285" width="6" height="6" fill="#FFD700"/>
      
      <rect x="200" y="280" width="35" height="30" fill="#FFEFD5" stroke="#DEB887" stroke-width="1" rx="3"/>
      <polygon points="200,280 217,265 235,280" fill="#8B4513"/>
      <rect x="210" y="295" width="8" height="10" fill="#4169E1"/>
      <rect x="205" y="285" width="6" height="6" fill="#FFD700"/>
    </g>
    
    <!-- 特色施設 -->
    <rect x="300" y="220" width="60" height="40" fill="#87CEEB"/>
    <text x="330" y="240" text-anchor="middle" font-family="Arial, sans-serif" font-size="10" font-weight="bold" fill="white">子ども図書館</text>
    <text x="330" y="250" text-anchor="middle" font-family="Arial, sans-serif" font-size="8" fill="white">学習センター</text>
    
    <rect x="380" y="220" width="60" height="40" fill="#98FB98"/>
    <text x="410" y="240" text-anchor="middle" font-family="Arial, sans-serif" font-size="10" font-weight="bold" fill="white">プレイグラウンド</text>
    <text x="410" y="250" text-anchor="middle" font-family="Arial, sans-serif" font-size="8" fill="white">体験農園</text>
    
    <!-- 集合住宅 -->
    <rect x="500" y="220" width="80" height="60" fill="#FFB6C1" rx="5"/>
    <g id="windows-a">
      <rect x="510" y="230" width="8" height="6" fill="#E6E6FA"/>
      <rect x="525" y="230" width="8" height="6" fill="#E6E6FA"/>
      <rect x="540" y="230" width="8" height="6" fill="#E6E6FA"/>
      <rect x="555" y="230" width="8" height="6" fill="#E6E6FA"/>
      <rect x="510" y="245" width="8" height="6" fill="#E6E6FA"/>
      <rect x="525" y="245" width="8" height="6" fill="#E6E6FA"/>
      <rect x="540" y="245" width="8" height="6" fill="#E6E6FA"/>
      <rect x="555" y="245" width="8" height="6" fill="#E6E6FA"/>
    </g>
    <text x="540" y="295" text-anchor="middle" font-family="Arial, sans-serif" font-size="9" fill="#C1427A">子育て支援住宅</text>
    
    <!-- エリア説明 -->
    <rect x="280" y="300" width="300" height="100" fill="white" opacity="0.9" rx="10"/>
    <text x="430" y="320" text-anchor="middle" font-family="Arial, sans-serif" font-size="12" font-weight="bold" fill="#FF6B6B">✨ このエリアの特色</text>
    <text x="290" y="340" font-family="Arial, sans-serif" font-size="10" fill="#2C3E50">👶 子育て世帯50世帯・新婚夫婦20世帯が住む</text>
    <text x="290" y="355" font-family="Arial, sans-serif" font-size="10" fill="#2C3E50">🏫 子ども図書館・プログラミング教室・体験農園</text>
    <text x="290" y="370" font-family="Arial, sans-serif" font-size="10" fill="#2C3E50">🚸 安全な通学路・見守りシステム・防犯カメラ</text>
    <text x="290" y="385" font-family="Arial, sans-serif" font-size="10" fill="#E74C3C">→ 子供たちが他エリアの大人に技術を教える！</text>
  </g>

  <!-- エリアB: 働き・創造エリア（北東） -->
  <g id="area-b">
    <rect x="770" y="150" width="580" height="280" fill="#E1F5FE" opacity="0.7" rx="15" stroke="#2196F3" stroke-width="3"/>
    
    <rect x="780" y="160" width="200" height="40" fill="#2196F3" rx="10"/>
    <text x="880" y="180" text-anchor="middle" font-family="Arial, sans-serif" font-size="16" font-weight="bold" fill="white">
      エリアB：働き・創造
    </text>
    <text x="880" y="195" text-anchor="middle" font-family="Arial, sans-serif" font-size="11" fill="white">
      技術・ビジネスの街
    </text>
    
    <!-- 戸建て住宅群（現代的デザイン） -->
    <g id="houses-b">
      <rect x="800" y="220" width="40" height="35" fill="#F0F8FF" stroke="#4682B4" stroke-width="1" rx="3"/>
      <rect x="805" y="215" width="30" height="5" fill="#000080"/>
      <rect x="810" y="235" width="8" height="12" fill="#4169E1"/>
      <rect x="805" y="225" width="6" height="6" fill="#FFD700"/>
      <text x="820" y="270" text-anchor="middle" font-family="Arial, sans-serif" font-size="8" fill="#4682B4">スマート</text>
      
      <rect x="860" y="220" width="40" height="35" fill="#F0F8FF" stroke="#4682B4" stroke-width="1" rx="3"/>
      <rect x="865" y="215" width="30" height="5" fill="#000080"/>
      <rect x="870" y="235" width="8" height="12" fill="#4169E1"/>
      <rect x="865" y="225" width="6" height="6" fill="#FFD700"/>
      
      <rect x="920" y="220" width="40" height="35" fill="#F0F8FF" stroke="#4682B4" stroke-width="1" rx="3"/>
      <rect x="925" y="215" width="30" height="5" fill="#000080"/>
      <rect x="930" y="235" width="8" height="12" fill="#4169E1"/>
      <rect x="925" y="225" width="6" height="6" fill="#FFD700"/>
    </g>
    
    <!-- 特色施設 -->
    <rect x="1000" y="220" width="70" height="40" fill="#4682B4"/>
    <text x="1035" y="235" text-anchor="middle" font-family="Arial, sans-serif" font-size="9" font-weight="bold" fill="white">24時間</text>
    <text x="1035" y="245" text-anchor="middle" font-family="Arial, sans-serif" font-size="9" font-weight="bold" fill="white">コワーキング</text>
    <text x="1035" y="255" text-anchor="middle" font-family="Arial, sans-serif" font-size="8" fill="white">スペース</text>
    
    <rect x="1090" y="220" width="70" height="40" fill="#20B2AA"/>
    <text x="1125" y="235" text-anchor="middle" font-family="Arial, sans-serif" font-size="9" font-weight="bold" fill="white">3Dプリンティング</text>
    <text x="1125" y="245" text-anchor="middle" font-family="Arial, sans-serif" font-size="9" font-weight="bold" fill="white">工房</text>
    
    <!-- 集合住宅（モダン） -->
    <rect x="1200" y="220" width="80" height="60" fill="#B0C4DE" rx="5"/>
    <g id="windows-b">
      <rect x="1210" y="230" width="12" height="8" fill="#F8F8FF"/>
      <rect x="1230" y="230" width="12" height="8" fill="#F8F8FF"/>
      <rect x="1250" y="230" width="12" height="8" fill="#F8F8FF"/>
      <rect x="1210" y="245" width="12" height="8" fill="#F8F8FF"/>
      <rect x="1230" y="245" width="12" height="8" fill="#F8F8FF"/>
      <rect x="1250" y="245" width="12" height="8" fill="#F8F8FF"/>
    </g>
    <text x="1240" y="295" text-anchor="middle" font-family="Arial, sans-serif" font-size="9" fill="#4682B4">IT関係者住宅</text>
    
    <!-- エリア説明 -->
    <rect x="980" y="300" width="300" height="100" fill="white" opacity="0.9" rx="10"/>
    <text x="1130" y="320" text-anchor="middle" font-family="Arial, sans-serif" font-size="12" font-weight="bold" fill="#2196F3">⚡ このエリアの特色</text>
    <text x="990" y="340" font-family="Arial, sans-serif" font-size="10" fill="#2C3E50">💼 働き盛り60世帯・技術者15世帯が住む</text>
    <text x="990" y="355" font-family="Arial, sans-serif" font-size="10" fill="#2C3E50">🏢 24時間コワーキング・3D工房・試作ラボ</text>
    <text x="990" y="370" font-family="Arial, sans-serif" font-size="10" fill="#2C3E50">📡 高速回線・防音ワークスペース・時短家事設備</text>
    <text x="990" y="385" font-family="Arial, sans-serif" font-size="10" fill="#1976D2">→ 子供たちに職業体験・最新技術を提供！</text>
  </g>

  <!-- エリアC: 知恵・経験エリア（南西） -->
  <g id="area-c">
    <rect x="50" y="570" width="580" height="380" fill="#F1F8E9" opacity="0.7" rx="15" stroke="#4CAF50" stroke-width="3"/>
    
    <rect x="60" y="580" width="200" height="40" fill="#4CAF50" rx="10"/>
    <text x="160" y="600" text-anchor="middle" font-family="Arial, sans-serif" font-size="16" font-weight="bold" fill="white">
      エリアC：知恵・経験
    </text>
    <text x="160" y="615" text-anchor="middle" font-family="Arial, sans-serif" font-size="11" fill="white">
      シニア・文化の街
    </text>
    
    <!-- 戸建て住宅群（和風・バリアフリー） -->
    <g id="houses-c">
      <rect x="80" y="640" width="40" height="30" fill="#F5DEB3" stroke="#D2B48C" stroke-width="1" rx="3"/>
      <polygon points="80,640 100,628 120,640" fill="#8B4513"/>
      <rect x="90" y="655" width="8" height="10" fill="#8B4513"/>
      <rect x="85" y="645" width="6" height="6" fill="#FFD700"/>
      <text x="100" y="685" text-anchor="middle" font-family="Arial, sans-serif" font-size="8" fill="#8B4513">平屋対応</text>
      
      <rect x="140" y="640" width="40" height="30" fill="#F5DEB3" stroke="#D2B48C" stroke-width="1" rx="3"/>
      <polygon points="140,640 160,628 180,640" fill="#8B4513"/>
      <rect x="150" y="655" width="8" height="10" fill="#8B4513"/>
      <rect x="145" y="645" width="6" height="6" fill="#FFD700"/>
      
      <rect x="200" y="640" width="40" height="30" fill="#F5DEB3" stroke="#D2B48C" stroke-width="1" rx="3"/>
      <polygon points="200,640 220,628 240,640" fill="#8B4513"/>
      <rect x="210" y="655" width="8" height="10" fill="#8B4513"/>
      <rect x="205" y="645" width="6" height="6" fill="#FFD700"/>
    </g>
    
    <!-- 特色施設 -->
    <rect x="280" y="640" width="70" height="40" fill="#FF7043"/>
    <text x="315" y="655" text-anchor="middle" font-family="Arial, sans-serif" font-size="9" font-weight="bold" fill="white">温泉・健康</text>
    <text x="315" y="665" text-anchor="middle" font-family="Arial, sans-serif" font-size="9" font-weight="bold" fill="white">増進センター</text>
    
    <rect x="370" y="640" width="70" height="40" fill="#8D6E63"/>
    <text x="405" y="655" text-anchor="middle" font-family="Arial, sans-serif" font-size="9" font-weight="bold" fill="white">陶芸・木工</text>
    <text x="405" y="665" text-anchor="middle" font-family="Arial, sans-serif" font-size="9" font-weight="bold" fill="white">手芸工房</text>
    
    <rect x="460" y="640" width="70" height="40" fill="#689F38"/>
    <text x="495" y="655" text-anchor="middle" font-family="Arial, sans-serif" font-size="9" font-weight="bold" fill="white">本格ガーデニング</text>
    <text x="495" y="665" text-anchor="middle" font-family="Arial, sans-serif" font-size="9" font-weight="bold" fill="white">菜園・花壇</text>
    
    <!-- 集合住宅（バリアフリー） -->
    <rect x="80" y="720" width="100" height="80" fill="#DCEDC1" rx="5"/>
    <g id="windows-c">
      <rect x="90" y="730" width="15" height="10" fill="#E8F5E8"/>
      <rect x="110" y="730" width="15" height="10" fill="#E8F5E8"/>
      <rect x="130" y="730" width="15" height="10" fill="#E8F5E8"/>
      <rect x="150" y="730" width="15" height="10" fill="#E8F5E8"/>
      <rect x="90" y="750" width="15" height="10" fill="#E8F5E8"/>
      <rect x="110" y="750" width="15" height="10" fill="#E8F5E8"/>
      <rect x="130" y="750" width="15" height="10" fill="#E8F5E8"/>
      <rect x="150" y="750" width="15" height="10" fill="#E8F5E8"/>
    </g>
    <text x="130" y="815" text-anchor="middle" font-family="Arial, sans-serif" font-size="9" fill="#689F38">シニア向け住宅</text>
    <text x="130" y="825" text-anchor="middle" font-family="Arial, sans-serif" font-size="8" fill="#689F38">完全バリアフリー</text>
    
    <!-- エリア説明 -->
    <rect x="280" y="720" width="300" height="120" fill="white" opacity="0.9" rx="10"/>
    <text x="430" y="740" text-anchor="middle" font-family="Arial, sans-serif" font-size="12" font-weight="bold" fill="#4CAF50">🌿 このエリアの特色</text>
    <text x="290" y="760" font-family="Arial, sans-serif" font-size="10" fill="#2C3E50">👴 アクティブシニア50世帯・要支援20世帯が住む</text>
    <text x="290" y="775" font-family="Arial, sans-serif" font-size="10" fill="#2C3E50">🏥 温泉・陶芸工房・茶室・リハビリスペース</text>
    <text x="290" y="790" font-family="Arial, sans-serif" font-size="10" fill="#2C3E50">♿ 完全バリアフリー・見守りシステム・緊急通報</text>
    <text x="290" y="805" font-family="Arial, sans-serif" font-size="10" fill="#2C3E50">🎋 広い和室・手すり・段差解消・車椅子対応</text>
    <text x="290" y="820" font-family="Arial, sans-serif" font-size="10" fill="#388E3C">→ 人生経験・伝統技能を若い世代に伝授！</text>
  </g>

  <!-- エリアD: つなぎ・調和エリア（南東） -->
  <g id="area-d">
    <rect x="770" y="570" width="580" height="380" fill="#FFF3E0" opacity="0.7" rx="15" stroke="#FF9800" stroke-width="3"/>
    
    <rect x="780" y="580" width="200" height="40" fill="#FF9800" rx="10"/>
    <text x="880" y="600" text-anchor="middle" font-family="Arial, sans-serif" font-size="16" font-weight="bold" fill="white">
      エリアD：つなぎ・調和
    </text>
    <text x="880" y="615" text-anchor="middle" font-family="Arial, sans-serif" font-size="11" fill="white">
      多様性・創造の街
    </text>
    
    <!-- 多様な住宅群 -->
    <g id="houses-d">
      <!-- アーティスト住宅 -->
      <rect x="800" y="640" width="45" height="40" fill="#FFECB3" stroke="#FFA726" stroke-width="1" rx="5"/>
      <rect x="810" y="630" width="25" height="10" fill="#FF7043"/>
      <rect x="815" y="655" width="10" height="15" fill="#4169E1"/>
      <rect x="805" y="645" width="6" height="6" fill="#FFD700"/>
      <text x="822" y="695" text-anchor="middle" font-family="Arial, sans-serif" font-size="8" fill="#FF8F00">アトリエ付</text>
      
      <!-- 多世代住宅 -->
      <rect x="870" y="640" width="50" height="40" fill="#FFECB3" stroke="#FFA726" stroke-width="1" rx="3"/>
      <polygon points="870,640 895,625 920,640" fill="#8B4513"/>
      <rect x="880" y="655" width="8" height="15" fill="#4169E1"/>
      <rect x="900" y="655" width="8" height="15" fill="#4169E1"/>
      <rect x="875" y="645" width="6" height="6" fill="#FFD700"/>
      <text x="895" y="695" text-anchor="middle" font-family="Arial, sans-serif" font-size="8" fill="#FF8F00">2世帯対応</text>
      
      <!-- 国際住宅 -->
      <rect x="950" y="640" width="40" height="35" fill="#FFECB3" stroke="#FFA726" stroke-width="1" rx="3"/>
      <rect x="960" y="655" width="8" height="12" fill="#4169E1"/>
      <rect x="975" y="655" width="8" height="12" fill="#4169E1"/>
      <rect x="955" y="645" width="6" height="6" fill="#FFD700"/>
      <text x="970" y="690" text-anchor="middle" font-family="Arial, sans-serif" font-size="8" fill="#FF8F00">多文化対応</text>
    </g>
    
    <!-- 特色施設 -->
    <rect x="1020" y="640" width="80" height="40" fill="#9C27B0"/>
    <text x="1060" y="655" text-anchor="middle" font-family="Arial, sans-serif" font-size="9" font-weight="bold" fill="white">多目的アトリエ</text>
    <text x="1060" y="665" text-anchor="middle" font-family="Arial, sans-serif" font-size="9" font-weight="bold" fill="white">ギャラリー</text>
    
    <rect x="1120" y="640" width="80" height="40" fill="#E91E63"/>
    <text x="1160" y="650" text-anchor="middle" font-family="Arial, sans-serif" font-size="8" font-weight="bold" fill="white">国際交流センター</text>
    <text x="1160" y="660" text-anchor="middle" font-family="Arial, sans-serif" font-size="8" font-weight="bold" fill="white">多言語対応</text>
    <text x="1160" y="670" text-anchor="middle" font-family="Arial, sans-serif" font-size="8" font-weight="bold" fill="white">ゲストハウス</text>
    
    <rect x="1220" y="640" width="80" height="40" fill="#FF5722"/>
    <text x="1260" y="655" text-anchor="middle" font-family="Arial, sans-serif" font-size="9" font-weight="bold" fill="white">実験キッチン</text>
    <text x="1260" y="665" text-anchor="middle" font-family="Arial, sans-serif" font-size="9" font-weight="bold" fill="white">世界料理工房</text>
    
    <!-- 集合住宅（フレキシブル） -->
    <rect x="800" y="720" width="120" height="80" fill="#FFCC80" rx="5"/>
    <g id="windows-d">
      <rect x="810" y="730" width="12" height="8" fill="#FFF8E1"/>
      <rect x="830" y="730" width="12" height="8" fill="#FFF8E1"/>
      <rect x="850" y="730" width="12" height="8" fill="#FFF8E1"/>
      <rect x="870" y="730" width="12" height="8" fill="#FFF8E1"/>
      <rect x="890" y="730" width="12" height="8" fill="#FFF8E1"/>
      <rect x="810" y="750" width="12" height="8" fill="#FFF8E1"/>
      <rect x="830" y="750" width="12" height="8" fill="#FFF8E1"/>
      <rect x="850" y="750" width="12" height="8" fill="#FFF8E1"/>
      <rect x="870" y="750" width="12" height="8" fill="#FFF8E1"/>
      <rect x="890" y="750" width="12" height="8" fill="#FFF8E1"/>
    </g>
    <text x="860" y="815" text-anchor="middle" font-family="Arial, sans-serif" font-size="9" fill="#FF8F00">フレキシブル住宅</text>
    <text x="860" y="825" text-anchor="middle" font-family="Arial, sans-serif" font-size="8" fill="#FF8F00">短期滞在・ゲスト対応</text>
    
    <!-- エリア説明 -->
    <rect x="980" y="720" width="300" height="140" fill="white" opacity="0.9" rx="10"/>
    <text x="1130" y="740" text-anchor="middle" font-family="Arial, sans-serif" font-size="12" font-weight="bold" fill="#FF9800">🎨 このエリアの特色</text>
    <text x="990" y="760" font-family="Arial, sans-serif" font-size="10" fill="#2C3E50">🎭 アーティスト20世帯・国際家族15世帯が住む</text>
    <text x="990" y="775" font-family="Arial, sans-serif" font-size="10" fill="#2C3E50">🏠 2世帯・3世代家族25世帯・起業準備15世帯</text>
    <text x="990" y="790" font-family="Arial, sans-serif" font-size="10" fill="#2C3E50">🌍 アトリエ・国際交流センター・実験キッチン</text>
    <text x="990" y="805" font-family="Arial, sans-serif" font-size="10" fill="#2C3E50">🏗️ フレキシブル間取り・多文化対応・ゲスト施設</text>
    <text x="990" y="820" font-family="Arial, sans-serif" font-size="10" fill="#2C3E50">👥 最も多様性に富む・流動性あり・実験的取組</text>
    <text x="990" y="835" font-family="Arial, sans-serif" font-size="10" fill="#F57C00">→ 創造性・国際感覚・多様な視点を提供！</text>
  </g>

  <!-- 相互のつながりを示す矢印（控えめに） -->
  <g id="connection-arrows" opacity="0.6">
    <!-- A↔B -->
    <line x1="630" y1="250" x2="770" y2="250" stroke="#FF6B6B" stroke-width="3" stroke-dasharray="5,5"/>
    <text x="700" y="245" text-anchor="middle" font-family="Arial, sans-serif" font-size="10" fill="#E74C3C">学習⇔技術</text>
    
    <!-- A↔C -->
    <line x1="300" y1="430" x2="300" y2="570" stroke="#FF6B6B" stroke-width="3" stroke-dasharray="5,5"/>
    <text x="260" y="500" text-anchor="middle" font-family="Arial, sans-serif" font-size="10" fill="#E74C3C" transform="rotate(-90 260 500)">子育て⇔知恵</text>
    
    <!-- B↔D -->
    <line x1="1000" y1="430" x2="1000" y2="570" stroke="#FF6B6B" stroke-width="3" stroke-dasharray="5,5"/>
    <text x="1040" y="500" text-anchor="middle" font-family="Arial, sans-serif" font-size="10" fill="#E74C3C" transform="rotate(90 1040 500)">技術⇔創造</text>
    
    <!-- C↔D -->
    <line x1="630" y1="750" x2="770" y2="750" stroke="#FF6B6B" stroke-width="3" stroke-dasharray="5,5"/>
    <text x="700" y="745" text-anchor="middle" font-family="Arial, sans-serif" font-size="10" fill="#E74C3C">伝統⇔革新</text>
  </g>

  <!-- 街の特徴を示すアイコン -->
  <g id="street-features">
    <!-- 街路樹 -->
    <circle cx="150" cy="460" r="15" fill="#228B22"/>
    <rect x="147" y="470" width="6" height="15" fill="#8B4513"/>
    
    <circle cx="950" cy="460" r="15" fill="#228B22"/>
    <rect x="947" y="470" width="6" height="15" fill="#8B4513"/>
    
    <circle cx="650" cy="200" r="15" fill="#228B22"/>
    <rect x="647" y="210" width="6" height="15" fill="#8B4513"/>
    
    <circle cx="750" cy="800" r="15" fill="#228B22"/>
    <rect x="747" y="810" width="6" height="15" fill="#8B4513"/>
    
    <!-- 電気自動車充電ステーション -->
    <rect x="320" y="490" width="20" height="25" fill="#00FF00" rx="3"/>
    <text x="330" y="502" text-anchor="middle" font-family="Arial, sans-serif" font-size="8" fill="white">EV</text>
    <text x="330" y="525" text-anchor="middle" font-family="Arial, sans-serif" font-size="6" fill="#2C3E50">充電</text>
    
    <rect x="1060" y="490" width="20" height="25" fill="#00FF00" rx="3"/>
    <text x="1070" y="502" text-anchor="middle" font-family="Arial, sans-serif" font-size="8" fill="white">EV</text>
    <text x="1070" y="525" text-anchor="middle" font-family="Arial, sans-serif" font-size="6" fill="#2C3E50">充電</text>
  </g>

  <!-- 底部のキャッチコピー -->
  <rect x="200" y="920" width="1000" height="60" fill="white" opacity="0.95" rx="15" stroke="#34495E" stroke-width="2"/>
  <text x="700" y="945" text-anchor="middle" font-family="Arial, sans-serif" font-size="18" font-weight="bold" fill="#2C3E50">
    🏡 4つのエリアが支え合う、新しい暮らし方
  </text>
  <text x="700" y="965" text-anchor="middle" font-family="Arial, sans-serif" font-size="14" fill="#34495E">
    マイクロ炉の安定電力で、それぞれの特色を活かしながらつながる理想のコミュニティ
  </text>
</svg>