<svg viewBox="0 0 1400 1000" xmlns="http://www.w3.org/2000/svg">
  <defs>
    <!-- グラデーション定義 -->
    <linearGradient id="grassGradient" x1="0%" y1="0%" x2="0%" y2="100%">
      <stop offset="0%" style="stop-color:#90EE90;stop-opacity:1" />
      <stop offset="100%" style="stop-color:#7CFC00;stop-opacity:1" />
    </linearGradient>
    <radialGradient id="reactorGlow" cx="50%" cy="50%" r="50%">
      <stop offset="0%" style="stop-color:#00FFFF;stop-opacity:0.6" />
      <stop offset="100%" style="stop-color:#4169E1;stop-opacity:0.1" />
    </radialGradient>
    <linearGradient id="waterGradient" x1="0%" y1="0%" x2="100%" y2="0%">
      <stop offset="0%" style="stop-color:#4169E1;stop-opacity:0.8" />
      <stop offset="50%" style="stop-color:#87CEEB;stop-opacity:0.6" />
      <stop offset="100%" style="stop-color:#4169E1;stop-opacity:0.8" />
    </linearGradient>
  </defs>
  
  <!-- 背景 -->
  <rect width="1400" height="1000" fill="url(#grassGradient)"/>
  
  <!-- タイトル -->
  <rect x="20" y="20" width="600" height="80" fill="rgba(255,255,255,0.95)" stroke="#4169E1" stroke-width="2" rx="10"/>
  <text x="320" y="45" text-anchor="middle" font-family="Arial, sans-serif" font-size="20" font-weight="bold" fill="#2F4F4F">マイクロ炉自給自足型モデル都市</text>
  <text x="320" y="70" text-anchor="middle" font-family="Arial, sans-serif" font-size="16" fill="#4169E1">詳細平面図（人口1000人・敷地500ha）</text>
  <text x="320" y="90" text-anchor="middle" font-family="Arial, sans-serif" font-size="12" fill="#2F4F4F">縮尺 1:10000</text>
  
  <!-- 道路インフラ -->
  <!-- メインストリート（東西） -->
  <rect x="100" y="480" width="1200" height="40" fill="#696969" opacity="0.8"/>
  <line x1="100" y1="500" x2="1300" y2="500" stroke="#FFD700" stroke-width="2" stroke-dasharray="10,5"/>
  
  <!-- サブストリート（南北） -->
  <rect x="480" y="150" width="40" height="700" fill="#696969" opacity="0.8"/>
  <line x1="500" y1="150" x2="500" y2="850" stroke="#FFD700" stroke-width="2" stroke-dasharray="10,5"/>
  
  <!-- サブストリート（南北・右側） -->
  <rect x="880" y="200" width="40" height="600" fill="#696969" opacity="0.8"/>
  <line x1="900" y1="200" x2="900" y2="800" stroke="#FFD700" stroke-width="2" stroke-dasharray="10,5"/>
  
  <!-- 環状道路 -->
  <path d="M 200,300 Q 200,200 300,200 L 800,200 Q 900,200 900,300 L 900,700 Q 900,800 800,800 L 300,800 Q 200,800 200,700 Z" 
        fill="none" stroke="#696969" stroke-width="25" opacity="0.6"/>
  
  <!-- 川 -->
  <path d="M 0,350 Q 200,330 400,360 Q 600,390 800,370 Q 1000,350 1200,380 Q 1400,400 1400,420 L 1400,440 Q 1000,370 800,390 Q 600,410 400,380 Q 200,350 0,370 Z" 
        fill="url(#waterGradient)"/>
  
  <!-- 中央エネルギー区域 -->
  <g id="energy-core">
    <circle cx="700" cy="500" r="60" fill="url(#reactorGlow)"/>
    <rect x="660" y="460" width="80" height="80" fill="#2F4F4F" rx="10"/>
    <rect x="670" y="470" width="60" height="60" fill="#4169E1" rx="5"/>
    <circle cx="700" cy="500" r="15" fill="#00FFFF"/>
    <text x="700" y="420" text-anchor="middle" font-family="Arial, sans-serif" font-size="14" font-weight="bold" fill="#2F4F4F">マイクロ炉</text>
    <text x="700" y="435" text-anchor="middle" font-family="Arial, sans-serif" font-size="10" fill="#2F4F4F">地下設置 500kW</text>
    <text x="700" y="580" text-anchor="middle" font-family="Arial, sans-serif" font-size="12" font-weight="bold" fill="#2F4F4F">エネルギー管理センター</text>
  </g>
  
  <!-- 住宅エリア A区域（北西） -->
  <g id="residential-a">
    <rect x="120" y="250" width="320" height="200" fill="#DEB887" opacity="0.3" rx="10"/>
    <!-- 戸建て住宅群 -->
    <g id="houses-a">
      <rect x="140" y="270" width="25" height="20" fill="#DEB887" rx="2"/>
      <polygon points="140,270 152,260 165,270" fill="#8B4513"/>
      <rect x="145" y="275" width="6" height="8" fill="#4169E1"/>
      <rect x="142" y="272" width="4" height="4" fill="#FFD700"/>
      
      <rect x="180" y="270" width="25" height="20" fill="#DEB887" rx="2"/>
      <polygon points="180,270 192,260 205,270" fill="#8B4513"/>
      <rect x="185" y="275" width="6" height="8" fill="#4169E1"/>
      <rect x="182" y="272" width="4" height="4" fill="#FFD700"/>
      
      <rect x="220" y="270" width="25" height="20" fill="#DEB887" rx="2"/>
      <polygon points="220,270 232,260 245,270" fill="#8B4513"/>
      <rect x="225" y="275" width="6" height="8" fill="#4169E1"/>
      <rect x="222" y="272" width="4" height="4" fill="#FFD700"/>
      
      <rect x="260" y="270" width="25" height="20" fill="#DEB887" rx="2"/>
      <polygon points="260,270 272,260 285,270" fill="#8B4513"/>
      <rect x="265" y="275" width="6" height="8" fill="#4169E1"/>
      <rect x="262" y="272" width="4" height="4" fill="#FFD700"/>
      
      <rect x="300" y="270" width="25" height="20" fill="#DEB887" rx="2"/>
      <polygon points="300,270 312,260 325,270" fill="#8B4513"/>
      <rect x="305" y="275" width="6" height="8" fill="#4169E1"/>
      <rect x="302" y="272" width="4" height="4" fill="#FFD700"/>
      
      <rect x="340" y="270" width="25" height="20" fill="#DEB887" rx="2"/>
      <polygon points="340,270 352,260 365,270" fill="#8B4513"/>
      <rect x="345" y="275" width="6" height="8" fill="#4169E1"/>
      <rect x="342" y="272" width="4" height="4" fill="#FFD700"/>
      
      <rect x="380" y="270" width="25" height="20" fill="#DEB887" rx="2"/>
      <polygon points="380,270 392,260 405,270" fill="#8B4513"/>
      <rect x="385" y="275" width="6" height="8" fill="#4169E1"/>
      <rect x="382" y="272" width="4" height="4" fill="#FFD700"/>
      
      <!-- 2列目 -->
      <rect x="140" y="310" width="25" height="20" fill="#DEB887" rx="2"/>
      <polygon points="140,310 152,300 165,310" fill="#8B4513"/>
      <rect x="145" y="315" width="6" height="8" fill="#4169E1"/>
      <rect x="142" y="312" width="4" height="4" fill="#FFD700"/>
      
      <rect x="180" y="310" width="25" height="20" fill="#DEB887" rx="2"/>
      <polygon points="180,310 192,300 205,310" fill="#8B4513"/>
      <rect x="185" y="315" width="6" height="8" fill="#4169E1"/>
      <rect x="182" y="312" width="4" height="4" fill="#FFD700"/>
      
      <rect x="220" y="310" width="25" height="20" fill="#DEB887" rx="2"/>
      <polygon points="220,310 232,300 245,310" fill="#8B4513"/>
      <rect x="225" y="315" width="6" height="8" fill="#4169E1"/>
      <rect x="222" y="312" width="4" height="4" fill="#FFD700"/>
      
      <rect x="260" y="310" width="25" height="20" fill="#DEB887" rx="2"/>
      <polygon points="260,310 272,300 285,310" fill="#8B4513"/>
      <rect x="265" y="315" width="6" height="8" fill="#4169E1"/>
      <rect x="262" y="312" width="4" height="4" fill="#FFD700"/>
      
      <rect x="300" y="310" width="25" height="20" fill="#DEB887" rx="2"/>
      <polygon points="300,310 312,300 325,310" fill="#8B4513"/>
      <rect x="305" y="315" width="6" height="8" fill="#4169E1"/>
      <rect x="302" y="312" width="4" height="4" fill="#FFD700"/>
      
      <rect x="340" y="310" width="25" height="20" fill="#DEB887" rx="2"/>
      <polygon points="340,310 352,300 365,310" fill="#8B4513"/>
      <rect x="345" y="315" width="6" height="8" fill="#4169E1"/>
      <rect x="342" y="312" width="4" height="4" fill="#FFD700"/>
      
      <rect x="380" y="310" width="25" height="20" fill="#DEB887" rx="2"/>
      <polygon points="380,310 392,300 405,310" fill="#8B4513"/>
      <rect x="385" y="315" width="6" height="8" fill="#4169E1"/>
      <rect x="382" y="312" width="4" height="4" fill="#FFD700"/>
      
      <!-- 3列目 -->
      <rect x="140" y="350" width="25" height="20" fill="#DEB887" rx="2"/>
      <polygon points="140,350 152,340 165,350" fill="#8B4513"/>
      <rect x="145" y="355" width="6" height="8" fill="#4169E1"/>
      <rect x="142" y="352" width="4" height="4" fill="#FFD700"/>
      
      <rect x="180" y="350" width="25" height="20" fill="#DEB887" rx="2"/>
      <polygon points="180,350 192,340 205,350" fill="#8B4513"/>
      <rect x="185" y="355" width="6" height="8" fill="#4169E1"/>
      <rect x="182" y="352" width="4" height="4" fill="#FFD700"/>
      
      <rect x="220" y="350" width="25" height="20" fill="#DEB887" rx="2"/>
      <polygon points="220,350 232,340 245,350" fill="#8B4513"/>
      <rect x="225" y="355" width="6" height="8" fill="#4169E1"/>
      <rect x="222" y="352" width="4" height="4" fill="#FFD700"/>
      
      <rect x="260" y="350" width="25" height="20" fill="#DEB887" rx="2"/>
      <polygon points="260,350 272,340 285,350" fill="#8B4513"/>
      <rect x="265" y="355" width="6" height="8" fill="#4169E1"/>
      <rect x="262" y="352" width="4" height="4" fill="#FFD700"/>
      
      <rect x="300" y="350" width="25" height="20" fill="#DEB887" rx="2"/>
      <polygon points="300,350 312,340 325,350" fill="#8B4513"/>
      <rect x="305" y="355" width="6" height="8" fill="#4169E1"/>
      <rect x="302" y="352" width="4" height="4" fill="#FFD700"/>
      
      <rect x="340" y="350" width="25" height="20" fill="#DEB887" rx="2"/>
      <polygon points="340,350 352,340 365,350" fill="#8B4513"/>
      <rect x="345" y="355" width="6" height="8" fill="#4169E1"/>
      <rect x="342" y="352" width="4" height="4" fill="#FFD700"/>
      
      <rect x="380" y="350" width="25" height="20" fill="#DEB887" rx="2"/>
      <polygon points="380,350 392,340 405,350" fill="#8B4513"/>
      <rect x="385" y="355" width="6" height="8" fill="#4169E1"/>
      <rect x="382" y="352" width="4" height="4" fill="#FFD700"/>
      
      <!-- 4列目 -->
      <rect x="140" y="390" width="25" height="20" fill="#DEB887" rx="2"/>
      <polygon points="140,390 152,380 165,390" fill="#8B4513"/>
      <rect x="145" y="395" width="6" height="8" fill="#4169E1"/>
      <rect x="142" y="392" width="4" height="4" fill="#FFD700"/>
      
      <rect x="180" y="390" width="25" height="20" fill="#DEB887" rx="2"/>
      <polygon points="180,390 192,380 205,390" fill="#8B4513"/>
      <rect x="185" y="395" width="6" height="8" fill="#4169E1"/>
      <rect x="182" y="392" width="4" height="4" fill="#FFD700"/>
      
      <rect x="220" y="390" width="25" height="20" fill="#DEB887" rx="2"/>
      <polygon points="220,390 232,380 245,390" fill="#8B4513"/>
      <rect x="225" y="395" width="6" height="8" fill="#4169E1"/>
      <rect x="222" y="392" width="4" height="4" fill="#FFD700"/>
      
      <rect x="260" y="390" width="25" height="20" fill="#DEB887" rx="2"/>
      <polygon points="260,390 272,380 285,390" fill="#8B4513"/>
      <rect x="265" y="395" width="6" height="8" fill="#4169E1"/>
      <rect x="262" y="392" width="4" height="4" fill="#FFD700"/>
      
      <rect x="300" y="390" width="25" height="20" fill="#DEB887" rx="2"/>
      <polygon points="300,390 312,380 325,390" fill="#8B4513"/>
      <rect x="305" y="395" width="6" height="8" fill="#4169E1"/>
      <rect x="302" y="392" width="4" height="4" fill="#FFD700"/>
      
      <rect x="340" y="390" width="25" height="20" fill="#DEB887" rx="2"/>
      <polygon points="340,390 352,380 365,390" fill="#8B4513"/>
      <rect x="345" y="395" width="6" height="8" fill="#4169E1"/>
      <rect x="342" y="392" width="4" height="4" fill="#FFD700"/>
      
      <rect x="380" y="390" width="25" height="20" fill="#DEB887" rx="2"/>
      <polygon points="380,390 392,380 405,390" fill="#8B4513"/>
      <rect x="385" y="395" width="6" height="8" fill="#4169E1"/>
      <rect x="382" y="392" width="4" height="4" fill="#FFD700"/>
    </g>
    <text x="280" y="230" text-anchor="middle" font-family="Arial, sans-serif" font-size="12" font-weight="bold" fill="#2F4F4F">住宅エリアA（84世帯）</text>
  </g>
  
  <!-- 住宅エリア B区域（北東） -->
  <g id="residential-b">
    <rect x="960" y="250" width="320" height="200" fill="#DEB887" opacity="0.3" rx="10"/>
    <!-- 戸建て住宅群（簡略化） -->
    <g id="houses-b">
      <!-- 1列目 -->
      <rect x="980" y="270" width="25" height="20" fill="#DEB887" rx="2"/>
      <polygon points="980,270 992,260 1005,270" fill="#8B4513"/>
      <rect x="985" y="275" width="6" height="8" fill="#4169E1"/>
      <rect x="982" y="272" width="4" height="4" fill="#FFD700"/>
      
      <rect x="1020" y="270" width="25" height="20" fill="#DEB887" rx="2"/>
      <polygon points="1020,270 1032,260 1045,270" fill="#8B4513"/>
      <rect x="1025" y="275" width="6" height="8" fill="#4169E1"/>
      <rect x="1022" y="272" width="4" height="4" fill="#FFD700"/>
      
      <rect x="1060" y="270" width="25" height="20" fill="#DEB887" rx="2"/>
      <polygon points="1060,270 1072,260 1085,270" fill="#8B4513"/>
      <rect x="1065" y="275" width="6" height="8" fill="#4169E1"/>
      <rect x="1062" y="272" width="4" height="4" fill="#FFD700"/>
      
      <rect x="1100" y="270" width="25" height="20" fill="#DEB887" rx="2"/>
      <polygon points="1100,270 1112,260 1125,270" fill="#8B4513"/>
      <rect x="1105" y="275" width="6" height="8" fill="#4169E1"/>
      <rect x="1102" y="272" width="4" height="4" fill="#FFD700"/>
      
      <rect x="1140" y="270" width="25" height="20" fill="#DEB887" rx="2"/>
      <polygon points="1140,270 1152,260 1165,270" fill="#8B4513"/>
      <rect x="1145" y="275" width="6" height="8" fill="#4169E1"/>
      <rect x="1142" y="272" width="4" height="4" fill="#FFD700"/>
      
      <rect x="1180" y="270" width="25" height="20" fill="#DEB887" rx="2"/>
      <polygon points="1180,270 1192,260 1205,270" fill="#8B4513"/>
      <rect x="1185" y="275" width="6" height="8" fill="#4169E1"/>
      <rect x="1182" y="272" width="4" height="4" fill="#FFD700"/>
      
      <rect x="1220" y="270" width="25" height="20" fill="#DEB887" rx="2"/>
      <polygon points="1220,270 1232,260 1245,270" fill="#8B4513"/>
      <rect x="1225" y="275" width="6" height="8" fill="#4169E1"/>
      <rect x="1222" y="272" width="4" height="4" fill="#FFD700"/>
      
      <!-- 2列目 -->
      <rect x="980" y="310" width="25" height="20" fill="#DEB887" rx="2"/>
      <polygon points="980,310 992,300 1005,310" fill="#8B4513"/>
      <rect x="985" y="315" width="6" height="8" fill="#4169E1"/>
      <rect x="982" y="312" width="4" height="4" fill="#FFD700"/>
      
      <rect x="1020" y="310" width="25" height="20" fill="#DEB887" rx="2"/>
      <polygon points="1020,310 1032,300 1045,310" fill="#8B4513"/>
      <rect x="1025" y="315" width="6" height="8" fill="#4169E1"/>
      <rect x="1022" y="312" width="4" height="4" fill="#FFD700"/>
      
      <rect x="1060" y="310" width="25" height="20" fill="#DEB887" rx="2"/>
      <polygon points="1060,310 1072,300 1085,310" fill="#8B4513"/>
      <rect x="1065" y="315" width="6" height="8" fill="#4169E1"/>
      <rect x="1062" y="312" width="4" height="4" fill="#FFD700"/>
      
      <rect x="1100" y="310" width="25" height="20" fill="#DEB887" rx="2"/>
      <polygon points="1100,310 1112,300 1125,310" fill="#8B4513"/>
      <rect x="1105" y="315" width="6" height="8" fill="#4169E1"/>
      <rect x="1102" y="312" width="4" height="4" fill="#FFD700"/>
      
      <rect x="1140" y="310" width="25" height="20" fill="#DEB887" rx="2"/>
      <polygon points="1140,310 1152,300 1165,310" fill="#8B4513"/>
      <rect x="1145" y="315" width="6" height="8" fill="#4169E1"/>
      <rect x="1142" y="312" width="4" height="4" fill="#FFD700"/>
      
      <rect x="1180" y="310" width="25" height="20" fill="#DEB887" rx="2"/>
      <polygon points="1180,310 1192,300 1205,310" fill="#8B4513"/>
      <rect x="1185" y="315" width="6" height="8" fill="#4169E1"/>
      <rect x="1182" y="312" width="4" height="4" fill="#FFD700"/>
      
      <rect x="1220" y="310" width="25" height="20" fill="#DEB887" rx="2"/>
      <polygon points="1220,310 1232,300 1245,310" fill="#8B4513"/>
      <rect x="1225" y="315" width="6" height="8" fill="#4169E1"/>
      <rect x="1222" y="312" width="4" height="4" fill="#FFD700"/>
      
      <!-- 3列目 -->
      <rect x="980" y="350" width="25" height="20" fill="#DEB887" rx="2"/>
      <polygon points="980,350 992,340 1005,350" fill="#8B4513"/>
      <rect x="985" y="355" width="6" height="8" fill="#4169E1"/>
      <rect x="982" y="352" width="4" height="4" fill="#FFD700"/>
      
      <rect x="1020" y="350" width="25" height="20" fill="#DEB887" rx="2"/>
      <polygon points="1020,350 1032,340 1045,350" fill="#8B4513"/>
      <rect x="1025" y="355" width="6" height="8" fill="#4169E1"/>
      <rect x="1022" y="352" width="4" height="4" fill="#FFD700"/>
      
      <rect x="1060" y="350" width="25" height="20" fill="#DEB887" rx="2"/>
      <polygon points="1060,350 1072,340 1085,350" fill="#8B4513"/>
      <rect x="1065" y="355" width="6" height="8" fill="#4169E1"/>
      <rect x="1062" y="352" width="4" height="4" fill="#FFD700"/>
      
      <rect x="1100" y="350" width="25" height="20" fill="#DEB887" rx="2"/>
      <polygon points="1100,350 1112,340 1125,350" fill="#8B4513"/>
      <rect x="1105" y="355" width="6" height="8" fill="#4169E1"/>
      <rect x="1102" y="352" width="4" height="4" fill="#FFD700"/>
      
      <rect x="1140" y="350" width="25" height="20" fill="#DEB887" rx="2"/>
      <polygon points="1140,350 1152,340 1165,350" fill="#8B4513"/>
      <rect x="1145" y="355" width="6" height="8" fill="#4169E1"/>
      <rect x="1142" y="352" width="4" height="4" fill="#FFD700"/>
      
      <rect x="1180" y="350" width="25" height="20" fill="#DEB887" rx="2"/>
      <polygon points="1180,350 1192,340 1205,350" fill="#8B4513"/>
      <rect x="1185" y="355" width="6" height="8" fill="#4169E1"/>
      <rect x="1182" y="352" width="4" height="4" fill="#FFD700"/>
      
      <rect x="1220" y="350" width="25" height="20" fill="#DEB887" rx="2"/>
      <polygon points="1220,350 1232,340 1245,350" fill="#8B4513"/>
      <rect x="1225" y="355" width="6" height="8" fill="#4169E1"/>
      <rect x="1222" y="352" width="4" height="4" fill="#FFD700"/>
      
      <!-- 4列目 -->
      <rect x="980" y="390" width="25" height="20" fill="#DEB887" rx="2"/>
      <polygon points="980,390 992,380 1005,390" fill="#8B4513"/>
      <rect x="985" y="395" width="6" height="8" fill="#4169E1"/>
      <rect x="982" y="392" width="4" height="4" fill="#FFD700"/>
      
      <rect x="1020" y="390" width="25" height="20" fill="#DEB887" rx="2"/>
      <polygon points="1020,390 1032,380 1045,390" fill="#8B4513"/>
      <rect x="1025" y="395" width="6" height="8" fill="#4169E1"/>
      <rect x="1022" y="392" width="4" height="4" fill="#FFD700"/>
      
      <rect x="1060" y="390" width="25" height="20" fill="#DEB887" rx="2"/>
      <polygon points="1060,390 1072,380 1085,390" fill="#8B4513"/>
      <rect x="1065" y="395" width="6" height="8" fill="#4169E1"/>
      <rect x="1062" y="392" width="4" height="4" fill="#FFD700"/>
      
      <rect x="1100" y="390" width="25" height="20" fill="#DEB887" rx="2"/>
      <polygon points="1100,390 1112,380 1125,390" fill="#8B4513"/>
      <rect x="1105" y="395" width="6" height="8" fill="#4169E1"/>
      <rect x="1102" y="392" width="4" height="4" fill="#FFD700"/>
      
      <rect x="1140" y="390" width="25" height="20" fill="#DEB887" rx="2"/>
      <polygon points="1140,390 1152,380 1165,390" fill="#8B4513"/>
      <rect x="1145" y="395" width="6" height="8" fill="#4169E1"/>
      <rect x="1142" y="392" width="4" height="4" fill="#FFD700"/>
      
      <rect x="1180" y="390" width="25" height="20" fill="#DEB887" rx="2"/>
      <polygon points="1180,390 1192,380 1205,390" fill="#8B4513"/>
      <rect x="1185" y="395" width="6" height="8" fill="#4169E1"/>
      <rect x="1182" y="392" width="4" height="4" fill="#FFD700"/>
      
      <rect x="1220" y="390" width="25" height="20" fill="#DEB887" rx="2"/>
      <polygon points="1220,390 1232,380 1245,390" fill="#8B4513"/>
      <rect x="1225" y="395" width="6" height="8" fill="#4169E1"/>
      <rect x="1222" y="392" width="4" height="4" fill="#FFD700"/>
    </g>
    <text x="1120" y="230" text-anchor="middle" font-family="Arial, sans-serif" font-size="12" font-weight="bold" fill="#2F4F4F">住宅エリアB（84世帯）</text>
  </g>
  
  <!-- 住宅エリア C区域（南西） -->
  <g id="residential-c">
    <rect x="120" y="550" width="320" height="200" fill="#DEB887" opacity="0.3" rx="10"/>
    <!-- 戸建て住宅群（簡略化して表示） -->
    <g id="houses-c">
      <!-- 代表的な住宅のみ表示 -->
      <rect x="140" y="570" width="25" height="20" fill="#DEB887" rx="2"/>
      <polygon points="140,570 152,560 165,570" fill="#8B4513"/>
      <rect x="145" y="575" width="6" height="8" fill="#4169E1"/>
      <rect x="142" y="572" width="4" height="4" fill="#FFD700"/>
      
      <rect x="180" y="570" width="25" height="20" fill="#DEB887" rx="2"/>
      <polygon points="180,570 192,560 205,570" fill="#8B4513"/>
      <rect x="185" y="575" width="6" height="8" fill="#4169E1"/>
      <rect x="182" y="572" width="4" height="4" fill="#FFD700"/>
      
      <rect x="220" y="570" width="25" height="20" fill="#DEB887" rx="2"/>
      <polygon points="220,570 232,560 245,570" fill="#8B4513"/>
      <rect x="225" y="575" width="6" height="8" fill="#4169E1"/>
      <rect x="222" y="572" width="4" height="4" fill="#FFD700"/>
      
      <rect x="260" y="570" width="25" height="20" fill="#DEB887" rx="2"/>
      <polygon points="260,570 272,560 285,570" fill="#8B4513"/>
      <rect x="265" y="575" width="6" height="8" fill="#4169E1"/>
      <rect x="262" y="572" width="4" height="4" fill="#FFD700"/>
      
      <rect x="300" y="570" width="25" height="20" fill="#DEB887" rx="2"/>
      <polygon points="300,570 312,560 325,570" fill="#8B4513"/>
      <rect x="305" y="575" width="6" height="8" fill="#4169E1"/>
      <rect x="302" y="572" width="4" height="4" fill="#FFD700"/>
      
      <rect x="340" y="570" width="25" height="20" fill="#DEB887" rx="2"/>
      <polygon points="340,570 352,560 365,570" fill="#8B4513"/>
      <rect x="345" y="575" width="6" height="8" fill="#4169E1"/>
      <rect x="342" y="572" width="4" height="4" fill="#FFD700"/>
      
      <rect x="380" y="570" width="25" height="20" fill="#DEB887" rx="2"/>
      <polygon points="380,570 392,560 405,570" fill="#8B4513"/>
      <rect x="385" y="575" width="6" height="8" fill="#4169E1"/>
      <rect x="382" y="572" width="4" height="4" fill="#FFD700"/>
      
      <!-- 他の住宅は点で表現 -->
      <circle cx="160" cy="620" r="3" fill="#DEB887"/>
      <circle cx="200" cy="620" r="3" fill="#DEB887"/>
      <circle cx="240" cy="620" r="3" fill="#DEB887"/>
      <circle cx="280" cy="620" r="3" fill="#DEB887"/>
      <circle cx="320" cy="620" r="3" fill="#DEB887"/>
      <circle cx="360" cy="620" r="3" fill="#DEB887"/>
      <circle cx="400" cy="620" r="3" fill="#DEB887"/>
      
      <circle cx="160" cy="660" r="3" fill="#DEB887"/>
      <circle cx="200" cy="660" r="3" fill="#DEB887"/>
      <circle cx="240" cy="660" r="3" fill="#DEB887"/>
      <circle cx="280" cy="660" r="3" fill="#DEB887"/>
      <circle cx="320" cy="660" r="3" fill="#DEB887"/>
      <circle cx="360" cy="660" r="3" fill="#DEB887"/>
      <circle cx="400" cy="660" r="3" fill="#DEB887"/>
      
      <circle cx="160" cy="700" r="3" fill="#DEB887"/>
      <circle cx="200" cy="700" r="3" fill="#DEB887"/>
      <circle cx="240" cy="700" r="3" fill="#DEB887"/>
      <circle cx="280" cy="700" r="3" fill="#DEB887"/>
      <circle cx="320" cy="700" r="3" fill="#DEB887"/>
      <circle cx="360" cy="700" r="3" fill="#DEB887"/>
      <circle cx="400" cy="700" r="3" fill="#DEB887"/>
    </g>
    <text x="280" y="770" text-anchor="middle" font-family="Arial, sans-serif" font-size="12" font-weight="bold" fill="#2F4F4F">住宅エリアC（84世帯）</text>
  </g>
  
  <!-- 住宅エリア D区域（南東） -->
  <g id="residential-d">
    <rect x="960" y="550" width="320" height="200" fill="#DEB887" opacity="0.3" rx="10"/>
    <!-- 戸建て住宅群（簡略化して表示） -->
    <g id="houses-d">
      <!-- 代表的な住宅のみ表示 -->
      <rect x="980" y="570" width="25" height="20" fill="#DEB887" rx="2"/>
      <polygon points="980,570 992,560 1005,570" fill="#8B4513"/>
      <rect x="985" y="575" width="6" height="8" fill="#4169E1"/>
      <rect x="982" y="572" width="4" height="4" fill="#FFD700"/>
      
      <rect x="1020" y="570" width="25" height="20" fill="#DEB887" rx="2"/>
      <polygon points="1020,570 1032,560 1045,570" fill="#8B4513"/>
      <rect x="1025" y="575" width="6" height="8" fill="#4169E1"/>
      <rect x="1022" y="572" width="4" height="4" fill="#FFD700"/>
      
      <rect x="1060" y="570" width="25" height="20" fill="#DEB887" rx="2"/>
      <polygon points="1060,570 1072,560 1085,570" fill="#8B4513"/>
      <rect x="1065" y="575" width="6" height="8" fill="#4169E1"/>
      <rect x="1062" y="572" width="4" height="4" fill="#FFD700"/>
      
      <rect x="1100" y="570" width="25" height="20" fill="#DEB887" rx="2"/>
      <polygon points="1100,570 1112,560 1125,570" fill="#8B4513"/>
      <rect x="1105" y="575" width="6" height="8" fill="#4169E1"/>
      <rect x="1102" y="572" width="4" height="4" fill="#FFD700"/>
      
      <rect x="1140" y="570" width="25" height="20" fill="#DEB887" rx="2"/>
      <polygon points="1140,570 1152,560 1165,570" fill="#8B4513"/>
      <rect x="1145" y="575" width="6" height="8" fill="#4169E1"/>
      <rect x="1142" y="572" width="4" height="4" fill="#FFD700"/>
      
      <rect x="1180" y="570" width="25" height="20" fill="#DEB887" rx="2"/>
      <polygon points="1180,570 1192,560 1205,570" fill="#8B4513"/>
      <rect x="1185" y="575" width="6" height="8" fill="#4169E1"/>
      <rect x="1182" y="572" width="4" height="4" fill="#FFD700"/>
      
      <rect x="1220" y="570" width="25" height="20" fill="#DEB887" rx="2"/>
      <polygon points="1220,570 1232,560 1245,570" fill="#8B4513"/>
      <rect x="1225" y="575" width="6" height="8" fill="#4169E1"/>
      <rect x="1222" y="572" width="4" height="4" fill="#FFD700"/>
      
      <!-- 他の住宅は点で表現 -->
      <circle cx="1000" cy="620" r="3" fill="#DEB887"/>
      <circle cx="1040" cy="620" r="3" fill="#DEB887"/>
      <circle cx="1080" cy="620" r="3" fill="#DEB887"/>
      <circle cx="1120" cy="620" r="3" fill="#DEB887"/>
      <circle cx="1160" cy="620" r="3" fill="#DEB887"/>
      <circle cx="1200" cy="620" r="3" fill="#DEB887"/>
      <circle cx="1240" cy="620" r="3" fill="#DEB887"/>
      
      <circle cx="1000" cy="660" r="3" fill="#DEB887"/>
      <circle cx="1040" cy="660" r="3" fill="#DEB887"/>
      <circle cx="1080" cy="660" r="3" fill="#DEB887"/>
      <circle cx="1120" cy="660" r="3" fill="#DEB887"/>
      <circle cx="1160" cy="660" r="3" fill="#DEB887"/>
      <circle cx="1200" cy="660" r="3" fill="#DEB887"/>
      <circle cx="1240" cy="660" r="3" fill="#DEB887"/>
      
      <circle cx="1000" cy="700" r="3" fill="#DEB887"/>
      <circle cx="1040" cy="700" r="3" fill="#DEB887"/>
      <circle cx="1080" cy="700" r="3" fill="#DEB887"/>
      <circle cx="1120" cy="700" r="3" fill="#DEB887"/>
      <circle cx="1160" cy="700" r="3" fill="#DEB887"/>
      <circle cx="1200" cy="700" r="3" fill="#DEB887"/>
      <circle cx="1240" cy="700" r="3" fill="#DEB887"/>
    </g>
    <text x="1120" y="770" text-anchor="middle" font-family="Arial, sans-serif" font-size="12" font-weight="bold" fill="#2F4F4F">住宅エリアD（84世帯）</text>
  </g>
  
  <!-- 公共・商業区域（中央） -->
  <g id="public-commercial">
    <rect x="520" y="200" width="360" height="250" fill="#F0E68C" opacity="0.4" rx="10"/>
    
    <!-- 市役所 -->
    <rect x="540" y="220" width="60" height="40" fill="#CD853F"/>
    <rect x="545" y="230" width="12" height="20" fill="#4169E1"/>
    <rect x="560" y="230" width="12" height="20" fill="#4169E1"/>
    <rect x="575" y="230" width="12" height="20" fill="#4169E1"/>
    <polygon points="540,220 570,205 600,220" fill="#8B4513"/>
    <text x="570" y="195" text-anchor="middle" font-family="Arial, sans-serif" font-size="10" font-weight="bold" fill="#2F4F4F">市役所</text>
    
    <!-- 小中学校 -->
    <rect x="620" y="220" width="80" height="40" fill="#FFB6C1"/>
    <rect x="630" y="230" width="15" height="15" fill="#87CEEB"/>
    <rect x="650" y="230" width="15" height="15" fill="#87CEEB"/>
    <rect x="670" y="230" width="15" height="15" fill="#87CEEB"/>
    <text x="660" y="210" text-anchor="middle" font-family="Arial, sans-serif" font-size="10" font-weight="bold" fill="#2F4F4F">小中学校</text>
    
    <!-- 病院・診療所 -->
    <rect x="720" y="220" width="50" height="40" fill="#98FB98"/>
    <rect x="730" y="235" width="10" height="10" fill="#FF0000"/>
    <text x="745" y="255" text-anchor="middle" font-family="Arial, sans-serif" font-size="8" fill="#FF0000">+</text>
    <text x="745" y="210" text-anchor="middle" font-family="Arial, sans-serif" font-size="10" font-weight="bold" fill="#2F4F4F">診療所</text>
    
    <!-- 図書館 -->
    <rect x="540" y="280" width="50" height="35" fill="#DDA0DD"/>
    <rect x="545" y="290" width="8" height="15" fill="#8B4513"/>
    <rect x="555" y="290" width="8" height="15" fill="#8B4513"/>
    <rect x="565" y="290" width="8" height="15" fill="#8B4513"/>
    <rect x="575" y="290" width="8" height="15" fill="#8B4513"/>
    <text x="565" y="270" text-anchor="middle" font-family="Arial, sans-serif" font-size="10" font-weight="bold" fill="#2F4F4F">図書館</text>
    
    <!-- スーパーマーケット -->
    <rect x="610" y="280" width="60" height="35" fill="#FFE4B5"/>
    <rect x="620" y="290" width="15" height="15" fill="#32CD32"/>
    <rect x="640" y="290" width="15" height="15" fill="#FF6347"/>
    <text x="640" y="270" text-anchor="middle" font-family="Arial, sans-serif" font-size="10" font-weight="bold" fill="#2F4F4F">スーパー</text>
    
    <!-- レストラン・カフェ -->
    <rect x="690" y="280" width="40" height="35" fill="#F0E68C"/>
    <circle cx="705" cy="297" r="5" fill="#8B4513"/>
    <circle cx="715" cy="297" r="5" fill="#8B4513"/>
    <text x="710" y="270" text-anchor="middle" font-family="Arial, sans-serif" font-size="10" font-weight="bold" fill="#2F4F4F">カフェ</text>
    
    <!-- 警察 -->
    <rect x="540" y="330" width="40" height="30" fill="#4682B4"/>
    <rect x="550" y="340" width="8" height="10" fill="#FFFFFF"/>
    <rect x="562" y="340" width="8" height="10" fill="#FFFFFF"/>
    <text x="560" y="325" text-anchor="middle" font-family="Arial, sans-serif" font-size="10" font-weight="bold" fill="#FFFFFF">警察</text>
    
    <!-- 消防署 -->
    <rect x="600" y="330" width="40" height="30" fill="#FF0000"/>
    <rect x="610" y="340" width="8" height="10" fill="#FFFFFF"/>
    <rect x="622" y="340" width="8" height="10" fill="#FFFFFF"/>
    <text x="620" y="325" text-anchor="middle" font-family="Arial, sans-serif" font-size="10" font-weight="bold" fill="#FFFFFF">消防</text>
    
    <!-- 公民館・体育館 -->
    <rect x="660" y="330" width="50" height="30" fill="#DEB887"/>
    <text x="685" y="325" text-anchor="middle" font-family="Arial, sans-serif" font-size="10" font-weight="bold" fill="#2F4F4F">公民館</text>
    
    <!-- 郵便局 -->
    <rect x="730" y="330" width="35" height="30" fill="#FF8C00"/>
    <text x="747" y="325" text-anchor="middle" font-family="Arial, sans-serif" font-size="9" font-weight="bold" fill="#FFFFFF">郵便</text>
    
    <!-- 薬局 -->
    <rect x="780" y="220" width="40" height="30" fill="#98FB98"/>
    <text x="800" y="210" text-anchor="middle" font-family="Arial, sans-serif" font-size="10" font-weight="bold" fill="#2F4F4F">薬局</text>
    
    <!-- 銀行・ATM -->
    <rect x="780" y="280" width="40" height="30" fill="#C0C0C0"/>
    <text x="800" y="270" text-anchor="middle" font-family="Arial, sans-serif" font-size="10" font-weight="bold" fill="#2F4F4F">銀行</text>
    
    <!-- 商店街 -->
    <rect x="540" y="370" width="200" height="25" fill="#F5DEB3"/>
    <text x="640" y="385" text-anchor="middle" font-family="Arial, sans-serif" font-size="10" font-weight="bold" fill="#2F4F4F">商店街（理髪店・雑貨店等）</text>
    
    <!-- コンビニ -->
    <rect x="780" y="330" width="30" height="25" fill="#00FF00"/>
    <text x="795" y="325" text-anchor="middle" font-family="Arial, sans-serif" font-size="9" font-weight="bold" fill="#FFFFFF">コンビニ</text>
    
    <!-- 駐車場 -->
    <rect x="750" y="370" width="60" height="25" fill="#808080"/>
    <text x="780" y="385" text-anchor="middle" font-family="Arial, sans-serif" font-size="10" fill="#FFFFFF">駐車場</text>
    
    <text x="700" y="180" text-anchor="middle" font-family="Arial, sans-serif" font-size="14" font-weight="bold" fill="#2F4F4F">公共・商業区域</text>
  </g>
  
  <!-- IT・研究区域（西側） -->
  <g id="it-research">
    <rect x="200" y="160" width="250" height="80" fill="#E6E6FA" opacity="0.5" rx="10"/>
    
    <!-- AIデータセンター -->
    <rect x="220" y="180" width="60" height="40" fill="#4682B4" rx="3"/>
    <rect x="230" y="190" width="40" height="20" fill="#00FFFF" opacity="0.7"/>
    <circle cx="235" cy="195" r="2" fill="#FFD700"/>
    <circle cx="245" cy="197" r="2" fill="#FFD700"/>
    <circle cx="255" cy="195" r="2" fill="#FFD700"/>
    <circle cx="265" cy="197" r="2" fill="#FFD700"/>
    <text x="250" y="165" text-anchor="middle" font-family="Arial, sans-serif" font-size="11" font-weight="bold" fill="#2F4F4F">AIデータセンター</text>
    
    <!-- スマートシティ管理センター -->
    <rect x="300" y="180" width="60" height="40" fill="#483D8B"/>
    <rect x="310" y="190" width="40" height="20" fill="#7B68EE" opacity="0.8"/>
    <text x="330" y="165" text-anchor="middle" font-family="Arial, sans-serif" font-size="10" font-weight="bold" fill="#2F4F4F">スマートシティ</text>
    <text x="330" y="175" text-anchor="middle" font-family="Arial, sans-serif" font-size="10" font-weight="bold" fill="#2F4F4F">管理センター</text>
    
    <!-- 研究開発施設 -->
    <rect x="380" y="180" width="50" height="40" fill="#6495ED"/>
    <text x="405" y="165" text-anchor="middle" font-family="Arial, sans-serif" font-size="10" font-weight="bold" fill="#2F4F4F">R＆D施設</text>
    
    <text x="325" y="145" text-anchor="middle" font-family="Arial, sans-serif" font-size="12" font-weight="bold" fill="#2F4F4F">IT・研究区域</text>
  </g>
  
  <!-- 農業区域（東側） -->
  <g id="agriculture">
    <rect x="950" y="120" width="380" height="120" fill="#98FB98" opacity="0.4" rx="10"/>
    
    <!-- 水田 -->
    <rect x="970" y="140" width="100" height="40" fill="#228B22" opacity="0.8"/>
    <rect x="970" y="140" width="100" height="40" fill="#4169E1" opacity="0.3"/>
    <text x="1020" y="130" text-anchor="middle" font-family="Arial, sans-serif" font-size="11" font-weight="bold" fill="#2F4F4F">水田（100ha）</text>
    
    <!-- 畑作地 -->
    <rect x="1080" y="140" width="80" height="40" fill="#8FBC8F"/>
    <text x="1120" y="130" text-anchor="middle" font-family="Arial, sans-serif" font-size="11" font-weight="bold" fill="#2F4F4F">畑作地（50ha）</text>
    
    <!-- 温室施設 -->
    <rect x="1170" y="140" width="60" height="40" fill="#98FB98" stroke="#2F4F4F" stroke-width="2"/>
    <polygon points="1170,140 1200,125 1230,140" fill="rgba(255,255,255,0.5)"/>
    <text x="1200" y="120" text-anchor="middle" font-family="Arial, sans-serif" font-size="10" font-weight="bold" fill="#2F4F4F">温室（30ha）</text>
    
    <!-- 養鶏場 -->
    <rect x="970" y="190" width="80" height="30" fill="#DEB887"/>
    <circle cx="980" cy="205" r="3" fill="white"/>
    <circle cx="990" cy="200" r="3" fill="white"/>
    <circle cx="1000" cy="205" r="3" fill="white"/>
    <circle cx="1010" cy="200" r="3" fill="white"/>
    <circle cx="1020" cy="205" r="3" fill="white"/>
    <circle cx="1030" cy="200" r="3" fill="white"/>
    <circle cx="1040" cy="205" r="3" fill="white"/>
    <text x="1010" y="235" text-anchor="middle" font-family="Arial, sans-serif" font-size="10" font-weight="bold" fill="#2F4F4F">養鶏場（10ha・10万羽）</text>
    
    <!-- 果樹園 -->
    <rect x="1060" y="190" width="70" height="30" fill="#90EE90"/>
    <circle cx="1070" cy="205" r="4" fill="#228B22"/>
    <circle cx="1085" cy="200" r="4" fill="#228B22"/>
    <circle cx="1100" cy="205" r="4" fill="#228B22"/>
    <circle cx="1115" cy="200" r="4" fill="#228B22"/>
    <text x="1095" y="235" text-anchor="middle" font-family="Arial, sans-serif" font-size="10" font-weight="bold" fill="#2F4F4F">果樹園（10ha）</text>
    
    <!-- 農業倉庫・機械庫 -->
    <rect x="1140" y="190" width="50" height="30" fill="#8B4513"/>
    <text x="1165" y="235" text-anchor="middle" font-family="Arial, sans-serif" font-size="10" fill="#FFFFFF">農業倉庫</text>
    
    <!-- 堆肥施設 -->
    <rect x="1200" y="190" width="50" height="30" fill="#6B8E23"/>
    <text x="1225" y="235" text-anchor="middle" font-family="Arial, sans-serif" font-size="10" fill="#FFFFFF">堆肥施設</text>
    
    <text x="1140" y="105" text-anchor="middle" font-family="Arial, sans-serif" font-size="14" font-weight="bold" fill="#2F4F4F">農業区域（200ha）</text>
  </g>
  
  <!-- 製造・加工区域（南西） -->
  <g id="manufacturing">
    <rect x="120" y="780" width="320" height="100" fill="#D3D3D3" opacity="0.5" rx="10"/>
    
    <!-- 食品加工工場 -->
    <rect x="140" y="800" width="80" height="40" fill="#696969"/>
    <rect x="150" y="810" width="20" height="15" fill="#FF6347"/>
    <circle cx="155" cy="805" r="3" fill="#D3D3D3"/>
    <circle cx="165" cy="805" r="3" fill="#D3D3D3"/>
    <circle cx="175" cy="805" r="3" fill="#D3D3D3"/>
    <text x="180" y="790" text-anchor="middle" font-family="Arial, sans-serif" font-size="10" font-weight="bold" fill="#2F4F4F">食品加工工場</text>
    
    <!-- 3Dプリンティング工場 -->
    <rect x="240" y="800" width="70" height="40" fill="#4682B4"/>
    <rect x="250" y="810" width="15" height="15" fill="#00FFFF"/>
    <rect x="270" y="810" width="15" height="15" fill="#00FFFF"/>
    <text x="275" y="790" text-anchor="middle" font-family="Arial, sans-serif" font-size="10" font-weight="bold" fill="#2F4F4F">3Dプリンティング</text>
    
    <!-- リサイクル施設 -->
    <rect x="330" y="800" width="60" height="40" fill="#32CD32"/>
    <text x="360" y="790" text-anchor="middle" font-family="Arial, sans-serif" font-size="10" font-weight="bold" fill="#2F4F4F">リサイクル施設</text>
    
    <!-- 流通センター -->
    <rect x="140" y="850" width="100" height="25" fill="#FFE4B5"/>
    <text x="190" y="870" text-anchor="middle" font-family="Arial, sans-serif" font-size="10" font-weight="bold" fill="#2F4F4F">流通・物流センター</text>
    
    <!-- 倉庫 -->
    <rect x="260" y="850" width="80" height="25" fill="#8B4513"/>
    <text x="300" y="870" text-anchor="middle" font-family="Arial, sans-serif" font-size="10" fill="#FFFFFF">製品倉庫</text>
    
    <text x="280" y="765" text-anchor="middle" font-family="Arial, sans-serif" font-size="12" font-weight="bold" fill="#2F4F4F">製造・加工区域</text>
  </g>
  
  <!-- インフラ施設（南東） -->
  <g id="infrastructure">
    <rect x="960" y="830" width="280" height="120" fill="#F5F5DC" opacity="0.5" rx="10"/>
    
    <!-- 上下水道施設 -->
    <rect x="980" y="850" width="60" height="30" fill="#4169E1"/>
    <circle cx="1000" cy="865" r="5" fill="#87CEEB"/>
    <circle cx="1015" cy="865" r="5" fill="#87CEEB"/>
    <text x="1010" y="840" text-anchor="middle" font-family="Arial, sans-serif" font-size="10" font-weight="bold" fill="#2F4F4F">浄水場</text>
    
    <!-- 下水処理場 -->
    <rect x="1050" y="850" width="60" height="30" fill="#6B8E23"/>
    <text x="1080" y="840" text-anchor="middle" font-family="Arial, sans-serif" font-size="10" font-weight="bold" fill="#2F4F4F">下水処理場</text>
    
    <!-- バイオガス発電施設 -->
    <rect x="1120" y="850" width="50" height="30" fill="#228B22"/>
    <circle cx="1135" cy="865" r="4" fill="#FFD700"/>
    <circle cx="1155" cy="865" r="4" fill="#FFD700"/>
    <text x="1145" y="840" text-anchor="middle" font-family="Arial, sans-serif" font-size="9" font-weight="bold" fill="#2F4F4F">バイオガス</text>
    
    <!-- ゴミ処理・リサイクル -->
    <rect x="980" y="890" width="60" height="30" fill="#808080"/>
    <text x="1010" y="880" text-anchor="middle" font-family="Arial, sans-serif" font-size="10" font-weight="bold" fill="#2F4F4F">廃棄物処理</text>
    
    <!-- 電力変電所 -->
    <rect x="1050" y="890" width="50" height="30" fill="#4682B4"/>
    <rect x="1060" y="900" width="10" height="10" fill="#FFD700"/>
    <rect x="1075" y="900" width="10" height="10" fill="#FFD700"/>
    <text x="1075" y="880" text-anchor="middle" font-family="Arial, sans-serif" font-size="10" font-weight="bold" fill="#2F4F4F">変電所</text>
    
    <!-- 通信施設 -->
    <rect x="1110" y="890" width="40" height="30" fill="#483D8B"/>
    <line x1="1125" y1="890" x2="1125" y2="870" stroke="#FF0000" stroke-width="2"/>
    <line x1="1135" y1="890" x2="1135" y2="875" stroke="#FF0000" stroke-width="2"/>
    <text x="1130" y="880" text-anchor="middle" font-family="Arial, sans-serif" font-size="9" font-weight="bold" fill="#2F4F4F">通信基地局</text>
    
    <!-- 防災センター -->
    <rect x="1160" y="850" width="50" height="40" fill="#FF6347"/>
    <text x="1185" y="840" text-anchor="middle" font-family="Arial, sans-serif" font-size="9" font-weight="bold" fill="#2F4F4F">防災センター</text>
    
    <!-- 緊急物資倉庫 -->
    <rect x="1160" y="900" width="50" height="30" fill="#8B4513"/>
    <text x="1185" y="890" text-anchor="middle" font-family="Arial, sans-serif" font-size="9" fill="#FFFFFF">緊急物資</text>
    
    <text x="1100" y="815" text-anchor="middle" font-family="Arial, sans-serif" font-size="12" font-weight="bold" fill="#2F4F4F">インフラ・公益施設区域</text>
  </g>
  
  <!-- 交通・運輸施設 -->
  <g id="transportation">
    <!-- バスターミナル -->
    <rect x="450" y="550" width="60" height="30" fill="#32CD32"/>
    <rect x="460" y="560" width="15" height="10" fill="#FFFFFF"/>
    <rect x="480" y="560" width="15" height="10" fill="#FFFFFF"/>
    <text x="480" y="545" text-anchor="middle" font-family="Arial, sans-serif" font-size="10" font-weight="bold" fill="#2F4F4F">バスターミナル</text>
    
    <!-- 電気自動車充電ステーション -->
    <rect x="800" y="550" width="40" height="25" fill="#00FFFF"/>
    <circle cx="810" cy="562" r="3" fill="#FFD700"/>
    <circle cx="825" cy="562" r="3" fill="#FFD700"/>
    <text x="820" y="545" text-anchor="middle" font-family="Arial, sans-serif" font-size="9" font-weight="bold" fill="#2F4F4F">EV充電</text>
    
    <!-- 自転車シェアステーション -->
    <rect x="580" y="550" width="30" height="20" fill="#FF69B4"/>
    <circle cx="590" cy="560" r="2" fill="#FFFFFF"/>
    <circle cx="600" cy="560" r="2" fill="#FFFFFF"/>
    <text x="595" y="545" text-anchor="middle" font-family="Arial, sans-serif" font-size="8" fill="#2F4F4F">自転車</text>
  </g>
  
  <!-- 緑地・公園（複数箇所） -->
  <g id="parks">
    <!-- 中央公園 -->
    <ellipse cx="600" cy="350" rx="40" ry="25" fill="#90EE90" opacity="0.8"/>
    <circle cx="590" cy="340" r="8" fill="#228B22"/>
    <circle cx="610" cy="360" r="6" fill="#228B22"/>
    <text x="600" y="320" text-anchor="middle" font-family="Arial, sans-serif" font-size="10" font-weight="bold" fill="#2F4F4F">中央公園</text>
    
    <!-- 河川公園 -->
    <ellipse cx="600" cy="380" rx="80" ry="15" fill="#98FB98" opacity="0.6"/>
    <text x="600" y="405" text-anchor="middle" font-family="Arial, sans-serif" font-size="9" fill="#2F4F4F">河川親水公園</text>
    
    <!-- 住宅地公園 -->
    <circle cx="300" cy="320" r="20" fill="#90EE90" opacity="0.7"/>
    <circle cx="1100" cy="320" r="20" fill="#90EE90" opacity="0.7"/>
    <circle cx="300" cy="630" r="20" fill="#90EE90" opacity="0.7"/>
    <circle cx="1100" cy="630" r="20" fill="#90EE90" opacity="0.7"/>
  </g>
  
  <!-- 外部アクセス道路・鉄道 -->
  <g id="external-access">
    <!-- 高速道路アクセス -->
    <rect x="1300" y="480" width="100" height="40" fill="#696969"/>
    <line x1="1300" y1="500" x2="1400" y2="500" stroke="#FFFFFF" stroke-width="3" stroke-dasharray="15,10"/>
    <text x="1350" y="475" text-anchor="middle" font-family="Arial, sans-serif" font-size="10" font-weight="bold" fill="#2F4F4F">高速道路IC 20分</text>
    
    <!-- 鉄道駅アクセス -->
    <rect x="20" y="480" width="80" height="40" fill="#2F4F4F"/>
    <rect x="30" y="490" width="60" height="20" fill="#FF6347"/>
    <rect x="40" y="495" width="40" height="10" fill="#FFFFFF"/>
    <text x="60" y="475" text-anchor="middle" font-family="Arial, sans-serif" font-size="10" font-weight="bold" fill="#2F4F4F">最寄り駅15分</text>
  </g>
  
  <!-- スマート街灯（全域） -->
  <g id="smart-streetlights">
    <!-- 主要道路沿いのスマート街灯 -->
    <g fill="#FFD700" opacity="0.8">
      <circle cx="200" cy="500" r="3"/>
      <circle cx="300" cy="500" r="3"/>
      <circle cx="400" cy="500" r="3"/>
      <circle cx="800" cy="500" r="3"/>
      <circle cx="900" cy="500" r="3"/>
      <circle cx="1000" cy="500" r="3"/>
      <circle cx="1100" cy="500" r="3"/>
      
      <circle cx="500" cy="300" r="3"/>
      <circle cx="500" cy="400" r="3"/>
      <circle cx="500" cy="600" r="3"/>
      <circle cx="500" cy="700" r="3"/>
      
      <circle cx="900" cy="300" r="3"/>
      <circle cx="900" cy="400" r="3"/>
      <circle cx="900" cy="600" r="3"/>
      <circle cx="900" cy="700" r="3"/>
    </g>
    
    <!-- AIカメラ付きスマート街灯（重要箇所） -->
    <g id="ai-cameras">
      <rect x="498" y="298" width="4" height="4" fill="#4169E1"/>
      <rect x="698" y="498" width="4" height="4" fill="#4169E1"/>
      <rect x="598" y="548" width="4" height="4" fill="#4169E1"/>
    </g>
  </g>
  
  <!-- 凡例 -->
  <g id="legend">
    <rect x="1220" y="680" width="160" height="280" fill="rgba(255,255,255,0.95)" stroke="#2F4F4F" stroke-width="1" rx="5"/>
    <text x="1300" y="700" text-anchor="middle" font-family="Arial, sans-serif" font-size="12" font-weight="bold" fill="#2F4F4F">施設凡例</text>
    
    <!-- 住宅 -->
    <rect x="1230" y="710" width="8" height="6" fill="#DEB887"/>
    <text x="1245" y="717" font-family="Arial, sans-serif" font-size="8" fill="#2F4F4F">住宅（336世帯）</text>
    
    <!-- マイクロ炉 -->
    <circle cx="1234" cy="730" r="4" fill="#00FFFF"/>
    <text x="1245" y="734" font-family="Arial, sans-serif" font-size="8" fill="#2F4F4F">マイクロ炉（地下）</text>
    
    <!-- 農業 -->
    <rect x="1230" y="740" width="8" height="6" fill="#228B22"/>
    <text x="1245" y="747" font-family="Arial, sans-serif" font-size="8" fill="#2F4F4F">農業エリア</text>
    
    <!-- 公共施設 -->
    <rect x="1230" y="755" width="8" height="6" fill="#CD853F"/>
    <text x="1245" y="762" font-family="Arial, sans-serif" font-size="8" fill="#2F4F4F">公共施設</text>
    
    <!-- 商業 -->
    <rect x="1230" y="770" width="8" height="6" fill="#FFE4B5"/>
    <text x="1245" y="777" font-family="Arial, sans-serif" font-size="8" fill="#2F4F4F">商業施設</text>
    
    <!-- IT・研究 -->
    <rect x="1230" y="785" width="8" height="6" fill="#4682B4"/>
    <text x="1245" y="792" font-family="Arial, sans-serif" font-size="8" fill="#2F4F4F">IT・研究</text>
    
    <!-- 製造 -->
    <rect x="1230" y="800" width="8" height="6" fill="#696969"/>
    <text x="1245" y="807" font-family="Arial, sans-serif" font-size="8" fill="#2F4F4F">製造・加工</text>
    
    <!-- インフラ -->
    <rect x="1230" y="815" width="8" height="6" fill="#4169E1"/>
    <text x="1245" y="822" font-family="Arial, sans-serif" font-size="8" fill="#2F4F4F">インフラ施設</text>
    
    <!-- 交通 -->
    <rect x="1230" y="830" width="8" height="6" fill="#32CD32"/>
    <text x="1245" y="837" font-family="Arial, sans-serif" font-size="8" fill="#2F4F4F">交通施設</text>
    
    <!-- 緑地 -->
    <circle cx="1234" cy="850" r="4" fill="#90EE90"/>
    <text x="1245" y="854" font-family="Arial, sans-serif" font-size="8" fill="#2F4F4F">公園・緑地</text>
    
    <!-- 道路 -->
    <rect x="1230" y="860" width="8" height="3" fill="#696969"/>
    <text x="1245" y="867" font-family="Arial, sans-serif" font-size="8" fill="#2F4F4F">道路</text>
    
    <!-- 河川 -->
    <rect x="1230" y="875" width="8" height="3" fill="#4169E1"/>
    <text x="1245" y="882" font-family="Arial, sans-serif" font-size="8" fill="#2F4F4F">河川</text>
    
    <!-- スマート街灯 -->
    <circle cx="1234" cy="895" r="2" fill="#FFD700"/>
    <text x="1245" y="899" font-family="Arial, sans-serif" font-size="8" fill="#2F4F4F">スマート街灯</text>
    
    <!-- 統計情報 -->
    <text x="1300" y="920" text-anchor="middle" font-family="Arial, sans-serif" font-size="10" font-weight="bold" fill="#2F4F4F">基本統計</text>
    <text x="1230" y="935" font-family="Arial, sans-serif" font-size="8" fill="#2F4F4F">総面積: 500ha</text>
    <text x="1230" y="945" font-family="Arial, sans-serif" font-size="8" fill="#2F4F4F">人口: 1,000人</text>
    <text x="1230" y="955" font-family="Arial, sans-serif" font-size="8" fill="#2F4F4F">世帯数: 336世帯</text>
  </g>
</svg>
